<svg xmlns="http://www.w3.org/2000/svg" width="100" height="25" viewBox="0 0 100 25" fill="none"><path d="M35.4202 0.620117C34.3649 0.620117 33.6513 1.36755 33.6513 2.47864C33.6513 2.47864 33.6513 7.56319 33.6513 9.18542C32.7501 8.35755 31.4134 7.66709 29.7583 7.66709C24.9776 7.66709 22.48 12.0159 22.48 16.3112C22.48 20.6047 24.9776 24.9519 29.7583 24.9519C31.4921 24.9519 32.8154 24.4558 33.72 23.4972C33.8774 24.372 34.5039 24.9519 35.4202 24.9519C36.4806 24.9519 37.1925 24.2044 37.1925 23.09V2.47864C37.1925 1.36755 36.4806 0.620117 35.4202 0.620117ZM29.9728 21.7711C27.053 21.7711 26.0178 18.8316 26.0178 16.3112C26.0178 13.789 27.053 10.8462 29.9728 10.8462C32.8908 10.8462 33.9244 13.789 33.9244 16.3112C33.9244 18.8316 32.8908 21.7711 29.9728 21.7711ZM78.0284 10.8462C78.9614 10.8462 79.4556 11.0791 79.9297 11.3121C80.3133 11.4981 80.7119 11.6891 81.253 11.6891C82.1659 11.6891 82.7773 10.8831 82.7773 10.1306C82.7773 8.6592 80.8677 7.66709 78.0284 7.66709C72.73 7.66709 70.3564 12.0092 70.3564 16.3112C70.3564 20.6131 72.73 24.9519 78.0284 24.9519C81.0838 24.9519 82.6869 23.6833 82.6869 22.428C82.6869 21.4963 82.0956 20.8712 81.2178 20.8712C80.7689 20.8712 80.4288 21.0505 80.0637 21.2415C79.5796 21.4896 79.0402 21.7711 78.0284 21.7711C74.7653 21.7711 73.8959 18.3373 73.8959 16.3112C73.8959 14.28 74.7653 10.8462 78.0284 10.8462ZM14.7477 4.03216C14.478 3.32662 13.9838 2.0446 12.4528 2.0446C10.9351 2.0446 10.4543 3.26294 10.1679 3.99362C10.1579 4.01373 7.63345 10.7859 5.6518 16.0967H1.85599C0.5293 16.0967 0.0585938 16.9329 0.0585938 17.6518C0.0585938 18.3993 0.530976 19.2003 1.85599 19.2003H4.50099C3.8008 21.0672 3.32674 22.3359 3.32674 22.3359C3.21116 22.6224 3.07882 23.0883 3.07882 23.4687C3.07882 24.2162 3.63663 24.9737 4.70201 24.9737C5.82098 24.9737 6.18448 24.2396 6.45083 23.7067L6.50945 23.5877L7.92492 19.7383C7.92492 19.7383 8.007 19.5003 8.11589 19.2003H12.4896C13.818 19.2003 14.292 18.3993 14.292 17.6518C14.292 16.9329 13.8196 16.0967 12.4896 16.0967H9.25329C10.0975 13.7923 11.6152 9.66471 12.4544 7.3822C13.3506 9.82224 16.262 17.7557 16.2653 17.7591C16.2653 17.7641 16.9772 19.7299 16.9772 19.7299C16.9772 19.7383 18.3793 23.5542 18.3793 23.5542C18.5619 24.0201 18.9271 24.9737 20.2002 24.9737C21.2689 24.9737 21.8284 24.2162 21.8284 23.4687C21.8284 23.0883 21.6927 22.6258 21.5654 22.3174C21.5737 22.3359 14.7477 4.03216 14.7477 4.03216ZM63.9792 10.8462C64.9123 10.8462 65.4048 11.0791 65.8771 11.3121C66.2641 11.4981 66.6611 11.6891 67.2038 11.6891C68.1151 11.6891 68.7265 10.8831 68.7265 10.1306C68.7265 8.6592 66.8202 7.66709 63.9792 7.66709C58.6808 7.66709 56.3106 12.0092 56.3106 16.3112C56.3106 20.6131 58.6808 24.9519 63.9792 24.9519C67.0413 24.9519 68.6428 23.6833 68.6428 22.428C68.6428 21.4963 68.0531 20.8712 67.172 20.8712C66.7264 20.8712 66.3813 21.0505 66.0195 21.2415C65.5371 21.4896 64.991 21.7711 63.9809 21.7711C60.7211 21.7711 59.8518 18.3373 59.8518 16.3112C59.8501 14.28 60.7195 10.8462 63.9792 10.8462ZM91.8967 7.66709C86.9752 7.66709 84.4005 12.0159 84.4005 16.3112C84.4005 20.6047 86.9752 24.9519 91.8967 24.9519C96.8131 24.9519 99.3844 20.6047 99.3844 16.3112C99.3844 12.0159 96.8131 7.66709 91.8967 7.66709ZM91.8967 21.7711C88.9769 21.7711 87.9434 18.8316 87.9434 16.3112C87.9434 13.789 88.9769 10.8462 91.8967 10.8462C94.8147 10.8462 95.8516 13.789 95.8516 16.3112C95.8516 18.8316 94.8147 21.7711 91.8967 21.7711ZM54.4629 15.919C54.4629 11.8634 51.7157 7.66709 47.1159 7.66709C42.1039 7.66709 39.4774 12.0159 39.4774 16.3112C39.4774 20.2997 41.5176 24.9519 47.2683 24.9519C50.4091 24.9519 54.1296 22.9308 54.1296 21.2248C54.1296 20.1723 53.4009 19.6042 52.7208 19.6042C52.225 19.6042 51.8129 19.926 51.3338 20.2997C50.5381 20.9214 49.4476 21.7711 47.3001 21.7711C44.8829 21.7711 43.2363 20.1807 43.0487 17.7759C43.9214 17.7759 52.5399 17.7759 52.5399 17.7759C53.8532 17.7759 54.4629 17.186 54.4629 15.919ZM43.0453 14.9051C43.1894 13.5108 43.8762 10.7255 47.1058 10.8462C49.6888 10.8462 50.7391 13.1304 50.8899 14.9051H43.0453Z" fill="black"></path></svg>