<svg xmlns="http://www.w3.org/2000/svg" width="278" height="38" viewBox="0 0 278 38" fill="none"><path d="M0.5 6C0.5 2.68629 3.18629 0 6.5 0H271.5C274.814 0 277.5 2.68629 277.5 6V32C277.5 35.3137 274.814 38 271.5 38H6.49999C3.18629 38 0.5 35.3137 0.5 32V6Z" fill="#C2A6F1"></path><path d="M0.5 6C0.5 2.68629 3.18629 0 6.5 0H271.5C274.814 0 277.5 2.68629 277.5 6V32C277.5 35.3137 274.814 38 271.5 38H6.49999C3.18629 38 0.5 35.3137 0.5 32V6Z" fill="url(#paint0_radial_213_1606)"></path><path d="M0.5 6C0.5 2.68629 3.18629 0 6.5 0H271.5C274.814 0 277.5 2.68629 277.5 6V32C277.5 35.3137 274.814 38 271.5 38H6.49999C3.18629 38 0.5 35.3137 0.5 32V6Z" fill="url(#paint1_linear_213_1606)"></path><path d="M0.5 6C0.5 2.68629 3.18629 0 6.5 0H271.5C274.814 0 277.5 2.68629 277.5 6V32C277.5 35.3137 274.814 38 271.5 38H6.49999C3.18629 38 0.5 35.3137 0.5 32V6Z" fill="url(#paint2_linear_213_1606)"></path><path d="M0.5 6C0.5 2.68629 3.18629 0 6.5 0H271.5C274.814 0 277.5 2.68629 277.5 6V32C277.5 35.3137 274.814 38 271.5 38H6.49999C3.18629 38 0.5 35.3137 0.5 32V6Z" fill="url(#paint3_linear_213_1606)"></path><path d="M0.5 6C0.5 2.68629 3.18629 0 6.5 0H271.5C274.814 0 277.5 2.68629 277.5 6V32C277.5 35.3137 274.814 38 271.5 38H6.49999C3.18629 38 0.5 35.3137 0.5 32V6Z" fill="url(#paint4_radial_213_1606)"></path><path d="M0.5 6C0.5 2.68629 3.18629 0 6.5 0H271.5C274.814 0 277.5 2.68629 277.5 6V32C277.5 35.3137 274.814 38 271.5 38H6.49999C3.18629 38 0.5 35.3137 0.5 32V6Z" fill="url(#paint5_radial_213_1606)"></path><path d="M0.5 6C0.5 2.68629 3.18629 0 6.5 0H271.5C274.814 0 277.5 2.68629 277.5 6V32C277.5 35.3137 274.814 38 271.5 38H6.49999C3.18629 38 0.5 35.3137 0.5 32V6Z" fill="url(#paint6_radial_213_1606)"></path><path d="M0.5 6C0.5 2.68629 3.18629 0 6.5 0H271.5C274.814 0 277.5 2.68629 277.5 6V32C277.5 35.3137 274.814 38 271.5 38H6.49999C3.18629 38 0.5 35.3137 0.5 32V6Z" fill="url(#paint7_linear_213_1606)"></path><path d="M15.8792 24V13.0909H22.9744V14.7475H17.8554V17.7092H22.6068V19.3658H17.8554V22.3434H23.017V24H15.8792ZM26.8336 19.206V24H24.9053V15.8182H26.7484V17.2085H26.8442C27.0324 16.7504 27.3325 16.3864 27.7445 16.1165C28.1599 15.8466 28.6731 15.7116 29.2839 15.7116C29.8485 15.7116 30.3403 15.8324 30.7594 16.0739C31.182 16.3153 31.5087 16.6651 31.7395 17.1232C31.9739 17.5813 32.0893 18.1371 32.0857 18.7905V24H30.1574V19.0888C30.1574 18.5419 30.0154 18.114 29.7313 17.805C29.4508 17.4961 29.0619 17.3416 28.5648 17.3416C28.2274 17.3416 27.9273 17.4162 27.6646 17.5653C27.4053 17.7109 27.2011 17.9222 27.052 18.1992C26.9064 18.4762 26.8336 18.8118 26.8336 19.206ZM40.121 24.1651C39.6026 24.1651 39.1356 24.0728 38.7201 23.8881C38.3082 23.6999 37.9815 23.4229 37.74 23.0572C37.5021 22.6914 37.3831 22.2404 37.3831 21.7042C37.3831 21.2425 37.4684 20.8608 37.6388 20.5589C37.8093 20.2571 38.0419 20.0156 38.3366 19.8345C38.6313 19.6534 38.9634 19.5167 39.3327 19.4244C39.7056 19.3285 40.0909 19.2592 40.4886 19.2166C40.968 19.1669 41.3568 19.1225 41.6551 19.0835C41.9534 19.0408 42.1701 18.9769 42.305 18.8917C42.4435 18.8029 42.5127 18.6662 42.5127 18.4815V18.4496C42.5127 18.0483 42.3938 17.7376 42.1559 17.5174C41.9179 17.2972 41.5752 17.1871 41.1278 17.1871C40.6555 17.1871 40.2809 17.2901 40.0039 17.4961C39.7304 17.7021 39.5458 17.9453 39.4499 18.2259L37.6495 17.9702C37.7915 17.473 38.0259 17.0575 38.3526 16.7237C38.6793 16.3864 39.0788 16.1342 39.5511 15.9673C40.0234 15.7969 40.5454 15.7116 41.1171 15.7116C41.5113 15.7116 41.9037 15.7578 42.2943 15.8501C42.685 15.9425 43.0419 16.0952 43.365 16.3082C43.6882 16.5178 43.9474 16.8036 44.1427 17.1658C44.3416 17.5281 44.441 17.9808 44.441 18.5241V24H42.5873V22.8761H42.5234C42.4062 23.1033 42.2411 23.3164 42.028 23.5153C41.8185 23.7106 41.5539 23.8686 41.2343 23.9893C40.9183 24.1065 40.5472 24.1651 40.121 24.1651ZM40.6218 22.7482C41.0088 22.7482 41.3444 22.6719 41.6285 22.5192C41.9126 22.3629 42.131 22.157 42.2837 21.9013C42.4399 21.6456 42.5181 21.3668 42.5181 21.065V20.1009C42.4577 20.1506 42.3547 20.1967 42.2091 20.2393C42.0671 20.282 41.9073 20.3192 41.7297 20.3512C41.5522 20.3832 41.3764 20.4116 41.2024 20.4364C41.0284 20.4613 40.8774 20.4826 40.7496 20.5004C40.462 20.5394 40.2045 20.6033 39.9772 20.6921C39.75 20.7809 39.5706 20.9052 39.4392 21.065C39.3078 21.2212 39.2421 21.4237 39.2421 21.6722C39.2421 22.0273 39.3718 22.2955 39.631 22.4766C39.8902 22.6577 40.2205 22.7482 40.6218 22.7482ZM50.4655 15.8182V17.3097H45.762V15.8182H50.4655ZM46.9233 13.858H48.8515V21.5391C48.8515 21.7983 48.8906 21.9972 48.9687 22.1357C49.0504 22.2706 49.1569 22.3629 49.2883 22.4126C49.4197 22.4624 49.5653 22.4872 49.7251 22.4872C49.8458 22.4872 49.9559 22.4783 50.0554 22.4606C50.1583 22.4428 50.2365 22.4268 50.2897 22.4126L50.6147 23.9201C50.5117 23.9556 50.3643 23.9947 50.1725 24.0373C49.9843 24.0799 49.7535 24.1048 49.4801 24.1119C48.9971 24.1261 48.5621 24.0533 48.175 23.8935C47.788 23.7301 47.4808 23.478 47.2535 23.1371C47.0298 22.7962 46.9197 22.37 46.9233 21.8587V13.858ZM56.1638 15.8182V17.3097H51.4603V15.8182H56.1638ZM52.6215 13.858H54.5498V21.5391C54.5498 21.7983 54.5888 21.9972 54.6669 22.1357C54.7486 22.2706 54.8552 22.3629 54.9866 22.4126C55.1179 22.4624 55.2635 22.4872 55.4233 22.4872C55.5441 22.4872 55.6542 22.4783 55.7536 22.4606C55.8566 22.4428 55.9347 22.4268 55.988 22.4126L56.3129 23.9201C56.2099 23.9556 56.0625 23.9947 55.8708 24.0373C55.6826 24.0799 55.4517 24.1048 55.1783 24.1119C54.6954 24.1261 54.2603 24.0533 53.8733 23.8935C53.4862 23.7301 53.179 23.478 52.9517 23.1371C52.728 22.7962 52.6179 22.37 52.6215 21.8587V13.858ZM61.3107 24.1598C60.4904 24.1598 59.7819 23.9893 59.1853 23.6484C58.5923 23.304 58.136 22.8175 57.8164 22.1889C57.4968 21.5568 57.337 20.8129 57.337 19.957C57.337 19.1154 57.4968 18.3768 57.8164 17.7411C58.1395 17.1019 58.5905 16.6048 59.1693 16.2496C59.7482 15.891 60.4282 15.7116 61.2095 15.7116C61.7137 15.7116 62.1896 15.7933 62.637 15.9567C63.088 16.1165 63.4858 16.3651 63.8302 16.7024C64.1782 17.0398 64.4517 17.4695 64.6505 17.9915C64.8494 18.5099 64.9488 19.1278 64.9488 19.8452V20.4364H58.2425V19.1367H63.1005C63.0969 18.7674 63.017 18.4389 62.8608 18.1513C62.7045 17.8601 62.4861 17.631 62.2056 17.4641C61.9286 17.2972 61.6054 17.2138 61.2361 17.2138C60.8419 17.2138 60.4957 17.3097 60.1974 17.5014C59.8991 17.6896 59.6665 17.9382 59.4996 18.2472C59.3362 18.5526 59.2528 18.8881 59.2492 19.2539V20.3885C59.2492 20.8643 59.3362 21.2727 59.5103 21.6136C59.6843 21.951 59.9275 22.2102 60.24 22.3913C60.5525 22.5689 60.9183 22.6577 61.3373 22.6577C61.6179 22.6577 61.8718 22.6186 62.099 22.5405C62.3263 22.4588 62.5234 22.3398 62.6903 22.1836C62.8572 22.0273 62.9833 21.8338 63.0685 21.603L64.8689 21.8054C64.7553 22.2812 64.5387 22.6967 64.2191 23.0518C63.903 23.4034 63.4982 23.6768 63.0046 23.8722C62.511 24.0639 61.9463 24.1598 61.3107 24.1598ZM68.5084 19.206V24H66.5801V15.8182H68.4232V17.2085H68.519C68.7073 16.7504 69.0073 16.3864 69.4193 16.1165C69.8347 15.8466 70.3479 15.7116 70.9587 15.7116C71.5233 15.7116 72.0151 15.8324 72.4342 16.0739C72.8568 16.3153 73.1835 16.6651 73.4143 17.1232C73.6487 17.5813 73.7641 18.1371 73.7605 18.7905V24H71.8323V19.0888C71.8323 18.5419 71.6902 18.114 71.4061 17.805C71.1256 17.4961 70.7367 17.3416 70.2396 17.3416C69.9022 17.3416 69.6021 17.4162 69.3394 17.5653C69.0801 17.7109 68.8759 17.9222 68.7268 18.1992C68.5812 18.4762 68.5084 18.8118 68.5084 19.206ZM78.757 24.1438C78.1142 24.1438 77.5389 23.9787 77.0311 23.6484C76.5233 23.3182 76.122 22.8388 75.8273 22.2102C75.5325 21.5817 75.3852 20.8182 75.3852 19.9197C75.3852 19.0107 75.5343 18.2436 75.8326 17.6186C76.1345 16.9901 76.5411 16.516 77.0524 16.1964C77.5638 15.8732 78.1337 15.7116 78.7623 15.7116C79.2417 15.7116 79.6359 15.7933 79.9448 15.9567C80.2538 16.1165 80.4988 16.31 80.6799 16.5373C80.861 16.761 81.0013 16.9723 81.1007 17.1712H81.1806V13.0909H83.1142V24H81.2179V22.7109H81.1007C81.0013 22.9098 80.8575 23.1211 80.6693 23.3448C80.481 23.565 80.2325 23.7532 79.9235 23.9094C79.6146 24.0657 79.2257 24.1438 78.757 24.1438ZM79.295 22.5618C79.7033 22.5618 80.0514 22.4517 80.339 22.2315C80.6266 22.0078 80.845 21.6971 80.9942 21.2994C81.1433 20.9016 81.2179 20.4382 81.2179 19.9091C81.2179 19.38 81.1433 18.9201 80.9942 18.5295C80.8486 18.1388 80.632 17.8352 80.3443 17.6186C80.0602 17.402 79.7104 17.2937 79.295 17.2937C78.8653 17.2937 78.5066 17.4055 78.219 17.6293C77.9313 17.853 77.7147 18.1619 77.5691 18.5561C77.4235 18.9503 77.3507 19.4013 77.3507 19.9091C77.3507 20.4205 77.4235 20.8768 77.5691 21.2781C77.7183 21.6758 77.9367 21.9901 78.2243 22.2209C78.5155 22.4482 78.8724 22.5618 79.295 22.5618ZM87.5234 24.1651C87.0049 24.1651 86.538 24.0728 86.1225 23.8881C85.7105 23.6999 85.3838 23.4229 85.1424 23.0572C84.9044 22.6914 84.7855 22.2404 84.7855 21.7042C84.7855 21.2425 84.8707 20.8608 85.0411 20.5589C85.2116 20.2571 85.4442 20.0156 85.7389 19.8345C86.0337 19.6534 86.3657 19.5167 86.735 19.4244C87.1079 19.3285 87.4932 19.2592 87.8909 19.2166C88.3703 19.1669 88.7592 19.1225 89.0575 19.0835C89.3558 19.0408 89.5724 18.9769 89.7073 18.8917C89.8458 18.8029 89.9151 18.6662 89.9151 18.4815V18.4496C89.9151 18.0483 89.7961 17.7376 89.5582 17.5174C89.3203 17.2972 88.9776 17.1871 88.5301 17.1871C88.0578 17.1871 87.6832 17.2901 87.4062 17.4961C87.1328 17.7021 86.9481 17.9453 86.8522 18.2259L85.0518 17.9702C85.1938 17.473 85.4282 17.0575 85.7549 16.7237C86.0816 16.3864 86.4811 16.1342 86.9534 15.9673C87.4257 15.7969 87.9478 15.7116 88.5195 15.7116C88.9137 15.7116 89.3061 15.7578 89.6967 15.8501C90.0873 15.9425 90.4442 16.0952 90.7674 16.3082C91.0905 16.5178 91.3497 16.8036 91.5451 17.1658C91.7439 17.5281 91.8434 17.9808 91.8434 18.5241V24H89.9897V22.8761H89.9257C89.8085 23.1033 89.6434 23.3164 89.4304 23.5153C89.2208 23.7106 88.9563 23.8686 88.6367 23.9893C88.3206 24.1065 87.9495 24.1651 87.5234 24.1651ZM88.0241 22.7482C88.4112 22.7482 88.7468 22.6719 89.0309 22.5192C89.3149 22.3629 89.5333 22.157 89.686 21.9013C89.8423 21.6456 89.9204 21.3668 89.9204 21.065V20.1009C89.86 20.1506 89.7571 20.1967 89.6115 20.2393C89.4694 20.282 89.3096 20.3192 89.1321 20.3512C88.9545 20.3832 88.7787 20.4116 88.6047 20.4364C88.4307 20.4613 88.2798 20.4826 88.1519 20.5004C87.8643 20.5394 87.6068 20.6033 87.3796 20.6921C87.1523 20.7809 86.973 20.9052 86.8416 21.065C86.7102 21.2212 86.6445 21.4237 86.6445 21.6722C86.6445 22.0273 86.7741 22.2955 87.0333 22.4766C87.2926 22.6577 87.6228 22.7482 88.0241 22.7482ZM95.7105 19.206V24H93.7823V15.8182H95.6253V17.2085H95.7212C95.9094 16.7504 96.2095 16.3864 96.6214 16.1165C97.0369 15.8466 97.55 15.7116 98.1608 15.7116C98.7255 15.7116 99.2173 15.8324 99.6363 16.0739C100.059 16.3153 100.386 16.6651 100.616 17.1232C100.851 17.5813 100.966 18.1371 100.963 18.7905V24H99.0344V19.0888C99.0344 18.5419 98.8924 18.114 98.6083 17.805C98.3277 17.4961 97.9389 17.3416 97.4417 17.3416C97.1044 17.3416 96.8043 17.4162 96.5415 17.5653C96.2823 17.7109 96.0781 17.9222 95.9289 18.1992C95.7833 18.4762 95.7105 18.8118 95.7105 19.206ZM107.008 15.8182V17.3097H102.305V15.8182H107.008ZM103.466 13.858H105.394V21.5391C105.394 21.7983 105.434 21.9972 105.512 22.1357C105.593 22.2706 105.7 22.3629 105.831 22.4126C105.963 22.4624 106.108 22.4872 106.268 22.4872C106.389 22.4872 106.499 22.4783 106.598 22.4606C106.701 22.4428 106.779 22.4268 106.833 22.4126L107.158 23.9201C107.055 23.9556 106.907 23.9947 106.716 24.0373C106.527 24.0799 106.296 24.1048 106.023 24.1119C105.54 24.1261 105.105 24.0533 104.718 23.8935C104.331 23.7301 104.024 23.478 103.796 23.1371C103.573 22.7962 103.463 22.37 103.466 21.8587V13.858ZM115.378 24.1438C114.735 24.1438 114.16 23.9787 113.652 23.6484C113.144 23.3182 112.743 22.8388 112.448 22.2102C112.154 21.5817 112.006 20.8182 112.006 19.9197C112.006 19.0107 112.155 18.2436 112.454 17.6186C112.756 16.9901 113.162 16.516 113.674 16.1964C114.185 15.8732 114.755 15.7116 115.383 15.7116C115.863 15.7116 116.257 15.7933 116.566 15.9567C116.875 16.1165 117.12 16.31 117.301 16.5373C117.482 16.761 117.622 16.9723 117.722 17.1712H117.802V13.0909H119.735V24H117.839V22.7109H117.722C117.622 22.9098 117.479 23.1211 117.29 23.3448C117.102 23.565 116.854 23.7532 116.545 23.9094C116.236 24.0657 115.847 24.1438 115.378 24.1438ZM115.916 22.5618C116.324 22.5618 116.672 22.4517 116.96 22.2315C117.248 22.0078 117.466 21.6971 117.615 21.2994C117.764 20.9016 117.839 20.4382 117.839 19.9091C117.839 19.38 117.764 18.9201 117.615 18.5295C117.47 18.1388 117.253 17.8352 116.965 17.6186C116.681 17.402 116.332 17.2937 115.916 17.2937C115.486 17.2937 115.128 17.4055 114.84 17.6293C114.552 17.853 114.336 18.1619 114.19 18.5561C114.045 18.9503 113.972 19.4013 113.972 19.9091C113.972 20.4205 114.045 20.8768 114.19 21.2781C114.339 21.6758 114.558 21.9901 114.845 22.2209C115.137 22.4482 115.493 22.5618 115.916 22.5618ZM125.412 24.1598C124.592 24.1598 123.883 23.9893 123.287 23.6484C122.694 23.304 122.238 22.8175 121.918 22.1889C121.598 21.5568 121.439 20.8129 121.439 19.957C121.439 19.1154 121.598 18.3768 121.918 17.7411C122.241 17.1019 122.692 16.6048 123.271 16.2496C123.85 15.891 124.53 15.7116 125.311 15.7116C125.815 15.7116 126.291 15.7933 126.739 15.9567C127.19 16.1165 127.587 16.3651 127.932 16.7024C128.28 17.0398 128.553 17.4695 128.752 17.9915C128.951 18.5099 129.05 19.1278 129.05 19.8452V20.4364H122.344V19.1367H127.202C127.198 18.7674 127.119 18.4389 126.962 18.1513C126.806 17.8601 126.588 17.631 126.307 17.4641C126.03 17.2972 125.707 17.2138 125.338 17.2138C124.943 17.2138 124.597 17.3097 124.299 17.5014C124.001 17.6896 123.768 17.9382 123.601 18.2472C123.438 18.5526 123.354 18.8881 123.351 19.2539V20.3885C123.351 20.8643 123.438 21.2727 123.612 21.6136C123.786 21.951 124.029 22.2102 124.342 22.3913C124.654 22.5689 125.02 22.6577 125.439 22.6577C125.719 22.6577 125.973 22.6186 126.201 22.5405C126.428 22.4588 126.625 22.3398 126.792 22.1836C126.959 22.0273 127.085 21.8338 127.17 21.603L128.97 21.8054C128.857 22.2812 128.64 22.6967 128.321 23.0518C128.005 23.4034 127.6 23.6768 127.106 23.8722C126.613 24.0639 126.048 24.1598 125.412 24.1598ZM130.682 24V15.8182H132.525V17.2085H132.621C132.791 16.7397 133.073 16.3739 133.468 16.1112C133.862 15.8448 134.332 15.7116 134.879 15.7116C135.433 15.7116 135.9 15.8466 136.28 16.1165C136.664 16.3828 136.933 16.7468 137.09 17.2085H137.175C137.356 16.7539 137.661 16.3917 138.091 16.1218C138.524 15.8484 139.038 15.7116 139.631 15.7116C140.383 15.7116 140.998 15.9496 141.474 16.4254C141.949 16.9013 142.187 17.5955 142.187 18.5082V24H140.254V18.8065C140.254 18.2987 140.119 17.9276 139.849 17.6932C139.579 17.4553 139.249 17.3363 138.858 17.3363C138.393 17.3363 138.029 17.4819 137.766 17.7731C137.507 18.0607 137.377 18.4354 137.377 18.897V24H135.486V18.7266C135.486 18.304 135.359 17.9666 135.103 17.7145C134.851 17.4624 134.52 17.3363 134.112 17.3363C133.835 17.3363 133.583 17.4073 133.356 17.5494C133.128 17.6879 132.947 17.8849 132.812 18.1406C132.677 18.3928 132.61 18.6875 132.61 19.0249V24H130.682ZM146.498 24.1651C145.98 24.1651 145.513 24.0728 145.097 23.8881C144.685 23.6999 144.358 23.4229 144.117 23.0572C143.879 22.6914 143.76 22.2404 143.76 21.7042C143.76 21.2425 143.845 20.8608 144.016 20.5589C144.186 20.2571 144.419 20.0156 144.714 19.8345C145.008 19.6534 145.34 19.5167 145.71 19.4244C146.083 19.3285 146.468 19.2592 146.866 19.2166C147.345 19.1669 147.734 19.1225 148.032 19.0835C148.33 19.0408 148.547 18.9769 148.682 18.8917C148.82 18.8029 148.89 18.6662 148.89 18.4815V18.4496C148.89 18.0483 148.771 17.7376 148.533 17.5174C148.295 17.2972 147.952 17.1871 147.505 17.1871C147.032 17.1871 146.658 17.2901 146.381 17.4961C146.107 17.7021 145.923 17.9453 145.827 18.2259L144.026 17.9702C144.168 17.473 144.403 17.0575 144.73 16.7237C145.056 16.3864 145.456 16.1342 145.928 15.9673C146.4 15.7969 146.922 15.7116 147.494 15.7116C147.888 15.7116 148.281 15.7578 148.671 15.8501C149.062 15.9425 149.419 16.0952 149.742 16.3082C150.065 16.5178 150.324 16.8036 150.52 17.1658C150.719 17.5281 150.818 17.9808 150.818 18.5241V24H148.964V22.8761H148.9C148.783 23.1033 148.618 23.3164 148.405 23.5153C148.195 23.7106 147.931 23.8686 147.611 23.9893C147.295 24.1065 146.924 24.1651 146.498 24.1651ZM146.999 22.7482C147.386 22.7482 147.721 22.6719 148.005 22.5192C148.29 22.3629 148.508 22.157 148.661 21.9013C148.817 21.6456 148.895 21.3668 148.895 21.065V20.1009C148.835 20.1506 148.732 20.1967 148.586 20.2393C148.444 20.282 148.284 20.3192 148.107 20.3512C147.929 20.3832 147.753 20.4116 147.579 20.4364C147.405 20.4613 147.254 20.4826 147.127 20.5004C146.839 20.5394 146.581 20.6033 146.354 20.6921C146.127 20.7809 145.948 20.9052 145.816 21.065C145.685 21.2212 145.619 21.4237 145.619 21.6722C145.619 22.0273 145.749 22.2955 146.008 22.4766C146.267 22.6577 146.597 22.7482 146.999 22.7482ZM154.685 19.206V24H152.757V15.8182H154.6V17.2085H154.696C154.884 16.7504 155.184 16.3864 155.596 16.1165C156.011 15.8466 156.525 15.7116 157.135 15.7116C157.7 15.7116 158.192 15.8324 158.611 16.0739C159.034 16.3153 159.36 16.6651 159.591 17.1232C159.825 17.5813 159.941 18.1371 159.937 18.7905V24H158.009V19.0888C158.009 18.5419 157.867 18.114 157.583 17.805C157.302 17.4961 156.913 17.3416 156.416 17.3416C156.079 17.3416 155.779 17.4162 155.516 17.5653C155.257 17.7109 155.053 17.9222 154.904 18.1992C154.758 18.4762 154.685 18.8118 154.685 19.206ZM164.934 24.1438C164.291 24.1438 163.716 23.9787 163.208 23.6484C162.7 23.3182 162.299 22.8388 162.004 22.2102C161.709 21.5817 161.562 20.8182 161.562 19.9197C161.562 19.0107 161.711 18.2436 162.009 17.6186C162.311 16.9901 162.718 16.516 163.229 16.1964C163.741 15.8732 164.311 15.7116 164.939 15.7116C165.418 15.7116 165.813 15.7933 166.122 15.9567C166.431 16.1165 166.676 16.31 166.857 16.5373C167.038 16.761 167.178 16.9723 167.277 17.1712H167.357V13.0909H169.291V24H167.395V22.7109H167.277C167.178 22.9098 167.034 23.1211 166.846 23.3448C166.658 23.565 166.409 23.7532 166.1 23.9094C165.791 24.0657 165.402 24.1438 164.934 24.1438ZM165.472 22.5618C165.88 22.5618 166.228 22.4517 166.516 22.2315C166.803 22.0078 167.022 21.6971 167.171 21.2994C167.32 20.9016 167.395 20.4382 167.395 19.9091C167.395 19.38 167.32 18.9201 167.171 18.5295C167.025 18.1388 166.809 17.8352 166.521 17.6186C166.237 17.402 165.887 17.2937 165.472 17.2937C165.042 17.2937 164.683 17.4055 164.396 17.6293C164.108 17.853 163.891 18.1619 163.746 18.5561C163.6 18.9503 163.527 19.4013 163.527 19.9091C163.527 20.4205 163.6 20.8768 163.746 21.2781C163.895 21.6758 164.113 21.9901 164.401 22.2209C164.692 22.4482 165.049 22.5618 165.472 22.5618ZM174.968 24.1598C174.148 24.1598 173.439 23.9893 172.843 23.6484C172.25 23.304 171.793 22.8175 171.474 22.1889C171.154 21.5568 170.994 20.8129 170.994 19.957C170.994 19.1154 171.154 18.3768 171.474 17.7411C171.797 17.1019 172.248 16.6048 172.827 16.2496C173.405 15.891 174.085 15.7116 174.867 15.7116C175.371 15.7116 175.847 15.7933 176.294 15.9567C176.745 16.1165 177.143 16.3651 177.487 16.7024C177.835 17.0398 178.109 17.4695 178.308 17.9915C178.507 18.5099 178.606 19.1278 178.606 19.8452V20.4364H171.9V19.1367H176.758C176.754 18.7674 176.674 18.4389 176.518 18.1513C176.362 17.8601 176.143 17.631 175.863 17.4641C175.586 17.2972 175.263 17.2138 174.893 17.2138C174.499 17.2138 174.153 17.3097 173.855 17.5014C173.556 17.6896 173.324 17.9382 173.157 18.2472C172.993 18.5526 172.91 18.8881 172.906 19.2539V20.3885C172.906 20.8643 172.993 21.2727 173.167 21.6136C173.341 21.951 173.585 22.2102 173.897 22.3913C174.21 22.5689 174.576 22.6577 174.995 22.6577C175.275 22.6577 175.529 22.6186 175.756 22.5405C175.984 22.4588 176.181 22.3398 176.348 22.1836C176.514 22.0273 176.64 21.8338 176.726 21.603L178.526 21.8054C178.413 22.2812 178.196 22.6967 177.876 23.0518C177.56 23.4034 177.155 23.6768 176.662 23.8722C176.168 24.0639 175.604 24.1598 174.968 24.1598ZM180.131 24V22.7749L184.35 17.4854V17.4162H180.269V15.8182H186.709V17.1339L182.693 22.3327V22.402H186.848V24H180.131ZM197.596 20.5589V15.8182H199.524V24H197.654V22.5458H197.569C197.384 23.0039 197.081 23.3786 196.658 23.6697C196.239 23.9609 195.723 24.1065 195.108 24.1065C194.572 24.1065 194.098 23.9876 193.686 23.7496C193.278 23.5082 192.958 23.1584 192.727 22.7003C192.496 22.2386 192.381 21.6811 192.381 21.0277V15.8182H194.309V20.7294C194.309 21.2479 194.451 21.6598 194.735 21.9652C195.019 22.2706 195.392 22.4233 195.854 22.4233C196.138 22.4233 196.413 22.354 196.68 22.2156C196.946 22.0771 197.164 21.8711 197.335 21.5977C197.509 21.3207 197.596 20.9744 197.596 20.5589ZM203.435 19.206V24H201.507V15.8182H203.35V17.2085H203.446C203.634 16.7504 203.934 16.3864 204.346 16.1165C204.761 15.8466 205.275 15.7116 205.885 15.7116C206.45 15.7116 206.942 15.8324 207.361 16.0739C207.784 16.3153 208.11 16.6651 208.341 17.1232C208.575 17.5813 208.691 18.1371 208.687 18.7905V24H206.759V19.0888C206.759 18.5419 206.617 18.114 206.333 17.805C206.052 17.4961 205.663 17.3416 205.166 17.3416C204.829 17.3416 204.529 17.4162 204.266 17.5653C204.007 17.7109 203.803 17.9222 203.654 18.1992C203.508 18.4762 203.435 18.8118 203.435 19.206ZM214.27 24.1598C213.449 24.1598 212.741 23.9893 212.144 23.6484C211.551 23.304 211.095 22.8175 210.775 22.1889C210.456 21.5568 210.296 20.8129 210.296 19.957C210.296 19.1154 210.456 18.3768 210.775 17.7411C211.098 17.1019 211.549 16.6048 212.128 16.2496C212.707 15.891 213.387 15.7116 214.168 15.7116C214.673 15.7116 215.149 15.7933 215.596 15.9567C216.047 16.1165 216.445 16.3651 216.789 16.7024C217.137 17.0398 217.411 17.4695 217.61 17.9915C217.808 18.5099 217.908 19.1278 217.908 19.8452V20.4364H211.201V19.1367H216.059C216.056 18.7674 215.976 18.4389 215.82 18.1513C215.663 17.8601 215.445 17.631 215.165 17.4641C214.888 17.2972 214.564 17.2138 214.195 17.2138C213.801 17.2138 213.455 17.3097 213.156 17.5014C212.858 17.6896 212.625 17.9382 212.459 18.2472C212.295 18.5526 212.212 18.8881 212.208 19.2539V20.3885C212.208 20.8643 212.295 21.2727 212.469 21.6136C212.643 21.951 212.886 22.2102 213.199 22.3913C213.511 22.5689 213.877 22.6577 214.296 22.6577C214.577 22.6577 214.831 22.6186 215.058 22.5405C215.285 22.4588 215.482 22.3398 215.649 22.1836C215.816 22.0273 215.942 21.8338 216.027 21.603L217.828 21.8054C217.714 22.2812 217.498 22.6967 217.178 23.0518C216.862 23.4034 216.457 23.6768 215.964 23.8722C215.47 24.0639 214.905 24.1598 214.27 24.1598ZM226.296 24.1438C225.653 24.1438 225.078 23.9787 224.57 23.6484C224.062 23.3182 223.661 22.8388 223.366 22.2102C223.072 21.5817 222.924 20.8182 222.924 19.9197C222.924 19.0107 223.073 18.2436 223.372 17.6186C223.674 16.9901 224.08 16.516 224.591 16.1964C225.103 15.8732 225.673 15.7116 226.301 15.7116C226.781 15.7116 227.175 15.7933 227.484 15.9567C227.793 16.1165 228.038 16.31 228.219 16.5373C228.4 16.761 228.54 16.9723 228.64 17.1712H228.72V13.0909H230.653V24H228.757V22.7109H228.64C228.54 22.9098 228.397 23.1211 228.208 23.3448C228.02 23.565 227.772 23.7532 227.463 23.9094C227.154 24.0657 226.765 24.1438 226.296 24.1438ZM226.834 22.5618C227.242 22.5618 227.59 22.4517 227.878 22.2315C228.166 22.0078 228.384 21.6971 228.533 21.2994C228.682 20.9016 228.757 20.4382 228.757 19.9091C228.757 19.38 228.682 18.9201 228.533 18.5295C228.388 18.1388 228.171 17.8352 227.883 17.6186C227.599 17.402 227.25 17.2937 226.834 17.2937C226.404 17.2937 226.046 17.4055 225.758 17.6293C225.47 17.853 225.254 18.1619 225.108 18.5561C224.963 18.9503 224.89 19.4013 224.89 19.9091C224.89 20.4205 224.963 20.8768 225.108 21.2781C225.257 21.6758 225.476 21.9901 225.763 22.2209C226.055 22.4482 226.411 22.5618 226.834 22.5618ZM236.33 24.1598C235.51 24.1598 234.801 23.9893 234.205 23.6484C233.612 23.304 233.155 22.8175 232.836 22.1889C232.516 21.5568 232.356 20.8129 232.356 19.957C232.356 19.1154 232.516 18.3768 232.836 17.7411C233.159 17.1019 233.61 16.6048 234.189 16.2496C234.768 15.891 235.448 15.7116 236.229 15.7116C236.733 15.7116 237.209 15.7933 237.657 15.9567C238.108 16.1165 238.505 16.3651 238.85 16.7024C239.198 17.0398 239.471 17.4695 239.67 17.9915C239.869 18.5099 239.968 19.1278 239.968 19.8452V20.4364H233.262V19.1367H238.12C238.116 18.7674 238.037 18.4389 237.88 18.1513C237.724 17.8601 237.506 17.631 237.225 17.4641C236.948 17.2972 236.625 17.2138 236.256 17.2138C235.861 17.2138 235.515 17.3097 235.217 17.5014C234.919 17.6896 234.686 17.9382 234.519 18.2472C234.356 18.5526 234.272 18.8881 234.269 19.2539V20.3885C234.269 20.8643 234.356 21.2727 234.53 21.6136C234.704 21.951 234.947 22.2102 235.26 22.3913C235.572 22.5689 235.938 22.6577 236.357 22.6577C236.637 22.6577 236.891 22.6186 237.119 22.5405C237.346 22.4588 237.543 22.3398 237.71 22.1836C237.877 22.0273 238.003 21.8338 238.088 21.603L239.888 21.8054C239.775 22.2812 239.558 22.6967 239.239 23.0518C238.923 23.4034 238.518 23.6768 238.024 23.8722C237.53 24.0639 236.966 24.1598 236.33 24.1598ZM235.435 14.7422L236.629 12.3079H238.514L236.879 14.7422H235.435ZM241.6 24V15.8182H243.443V17.2085H243.539C243.709 16.7397 243.991 16.3739 244.386 16.1112C244.78 15.8448 245.25 15.7116 245.797 15.7116C246.351 15.7116 246.818 15.8466 247.198 16.1165C247.582 16.3828 247.851 16.7468 248.008 17.2085H248.093C248.274 16.7539 248.579 16.3917 249.009 16.1218C249.442 15.8484 249.955 15.7116 250.549 15.7116C251.301 15.7116 251.916 15.9496 252.392 16.4254C252.867 16.9013 253.105 17.5955 253.105 18.5082V24H251.172V18.8065C251.172 18.2987 251.037 17.9276 250.767 17.6932C250.497 17.4553 250.167 17.3363 249.776 17.3363C249.311 17.3363 248.947 17.4819 248.684 17.7731C248.425 18.0607 248.295 18.4354 248.295 18.897V24H246.404V18.7266C246.404 18.304 246.277 17.9666 246.021 17.7145C245.769 17.4624 245.438 17.3363 245.03 17.3363C244.753 17.3363 244.501 17.4073 244.274 17.5494C244.046 17.6879 243.865 17.8849 243.73 18.1406C243.595 18.3928 243.528 18.6875 243.528 19.0249V24H241.6ZM258.63 24.1598C257.831 24.1598 257.139 23.984 256.553 23.6325C255.967 23.2809 255.513 22.7891 255.189 22.157C254.87 21.5249 254.71 20.7862 254.71 19.9411C254.71 19.0959 254.87 18.3555 255.189 17.7198C255.513 17.0842 255.967 16.5906 256.553 16.239C257.139 15.8874 257.831 15.7116 258.63 15.7116C259.429 15.7116 260.122 15.8874 260.708 16.239C261.294 16.5906 261.747 17.0842 262.066 17.7198C262.389 18.3555 262.551 19.0959 262.551 19.9411C262.551 20.7862 262.389 21.5249 262.066 22.157C261.747 22.7891 261.294 23.2809 260.708 23.6325C260.122 23.984 259.429 24.1598 258.63 24.1598ZM258.641 22.6151C259.074 22.6151 259.437 22.4961 259.728 22.2582C260.019 22.0167 260.236 21.6935 260.378 21.2887C260.523 20.8839 260.596 20.4329 260.596 19.9357C260.596 19.435 260.523 18.9822 260.378 18.5774C260.236 18.169 260.019 17.8441 259.728 17.6026C259.437 17.3612 259.074 17.2404 258.641 17.2404C258.197 17.2404 257.828 17.3612 257.533 17.6026C257.242 17.8441 257.024 18.169 256.878 18.5774C256.736 18.9822 256.665 19.435 256.665 19.9357C256.665 20.4329 256.736 20.8839 256.878 21.2887C257.024 21.6935 257.242 22.0167 257.533 22.2582C257.828 22.4961 258.197 22.6151 258.641 22.6151Z" fill="black"></path><defs><radialGradient id="paint0_radial_213_1606" cx="0" cy="0" r="1" gradientUnits="userSpaceOnUse" gradientTransform="translate(251.878 15.257) rotate(153.989) scale(84.375 58.3153)"><stop stop-color="#FFFDB1"></stop><stop offset="0.344597" stop-color="#FEE4BF"></stop><stop offset="0.695017" stop-color="#F0BDD0"></stop><stop offset="1" stop-color="#FF8126" stop-opacity="0"></stop></radialGradient><linearGradient id="paint1_linear_213_1606" x1="157.871" y1="-2.5666" x2="160.973" y2="15.4417" gradientUnits="userSpaceOnUse"><stop stop-color="#C0A9F0" stop-opacity="0"></stop><stop offset="0.456382" stop-color="#C0A9F0"></stop><stop offset="1" stop-color="#C0A9F0" stop-opacity="0"></stop></linearGradient><linearGradient id="paint2_linear_213_1606" x1="297.236" y1="-8.91182" x2="295.016" y2="13.0014" gradientUnits="userSpaceOnUse"><stop stop-color="#C0A9F0" stop-opacity="0"></stop><stop offset="0.461891" stop-color="#C0A9F0"></stop><stop offset="1" stop-color="#C0A9F0" stop-opacity="0"></stop></linearGradient><linearGradient id="paint3_linear_213_1606" x1="70.9619" y1="5.98874" x2="73.8044" y2="26.4164" gradientUnits="userSpaceOnUse"><stop stop-color="#CDF9E8"></stop><stop offset="1" stop-color="#CDF9E8" stop-opacity="0"></stop></linearGradient><radialGradient id="paint4_radial_213_1606" cx="0" cy="0" r="1" gradientUnits="userSpaceOnUse" gradientTransform="translate(126.708 16.9681) rotate(-165.151) scale(40.478 48.544)"><stop stop-color="#CBADEB"></stop><stop offset="1" stop-color="#C2A6F1" stop-opacity="0"></stop></radialGradient><radialGradient id="paint5_radial_213_1606" cx="0" cy="0" r="1" gradientUnits="userSpaceOnUse" gradientTransform="translate(99.8737 38) rotate(-168.955) scale(71.2626 37.933)"><stop stop-color="#DC8DDC"></stop><stop offset="1" stop-color="#DC8DDC" stop-opacity="0"></stop></radialGradient><radialGradient id="paint6_radial_213_1606" cx="0" cy="0" r="1" gradientUnits="userSpaceOnUse" gradientTransform="translate(123.072 33.045) rotate(-172.578) scale(76.9932 37.4313)"><stop stop-color="#DC8DDC"></stop><stop offset="1" stop-color="#DC8DDC" stop-opacity="0"></stop></radialGradient><linearGradient id="paint7_linear_213_1606" x1="0.5" y1="0" x2="4.01795" y2="16.8778" gradientUnits="userSpaceOnUse"><stop stop-color="#EBF3D0"></stop><stop offset="1" stop-color="#EBF3D0" stop-opacity="0"></stop></linearGradient></defs></svg>