<svg xmlns="http://www.w3.org/2000/svg" width="63" height="21" viewBox="0 0 63 21" fill="none"><g opacity="0.7"><path fill-rule="evenodd" clip-rule="evenodd" d="M11.0311 1.48455C11.4936 1.59057 11.7972 2.01823 11.7972 2.49273V6.78671H9.06896C7.55351 6.78671 6.32501 5.55823 6.32501 4.04282V2.49273C6.32501 2.01823 6.62859 1.59057 7.0911 1.48455C7.72439 1.33938 8.38379 1.2627 9.06111 1.2627C9.73842 1.2627 10.3978 1.33938 11.0311 1.48455ZM5.18179 3.48783C5.18179 2.87784 4.54335 2.48789 4.04306 2.83689C2.97518 3.58186 2.08064 4.55812 1.43207 5.69305C1.14319 6.19857 1.53729 6.78674 2.11954 6.78674H2.43784C3.95328 6.78674 5.18179 5.55825 5.18179 4.04284V3.48783ZM16.69 5.69305C16.9789 6.19858 16.5848 6.78674 16.0025 6.78674H12.9403V3.48783C12.9403 2.87784 13.5787 2.48789 14.079 2.83689C15.1469 3.58186 16.0414 4.55812 16.69 5.69305ZM1.82492 7.93478C1.06741 7.93478 0.391122 8.4512 0.319732 9.20532C0.293625 9.4811 0.280273 9.76058 0.280273 10.0432C0.280273 10.5192 0.318154 10.9864 0.391066 11.4419C0.505343 12.1558 1.15968 12.6257 1.88267 12.6257H5.18162V10.6787C5.18162 9.16326 3.95312 7.93478 2.43768 7.93478H1.82492ZM4.0428 17.2495C4.54309 17.5985 5.18152 17.2085 5.18152 16.5985V13.7738H2.40631C1.80307 13.7738 1.41177 14.3999 1.74602 14.9021C2.35774 15.8211 3.13806 16.6183 4.0428 17.2495ZM17.7304 11.4419C17.6161 12.1558 16.9618 12.6258 16.2388 12.6258H15.6838C14.1684 12.6258 12.9399 11.3973 12.9399 9.88187V7.93479H16.2966C17.0541 7.93479 17.7304 8.45121 17.8018 9.20534C17.8279 9.48111 17.8412 9.7606 17.8412 10.0432C17.8412 10.5192 17.8033 10.9864 17.7304 11.4419ZM7.09106 18.6018C6.62855 18.4958 6.32497 18.0681 6.32497 17.5936V13.7738H9.05321C10.5687 13.7738 11.7972 15.0023 11.7972 16.5177V17.5936C11.7972 18.0681 11.4936 18.4958 11.0311 18.6018C10.3978 18.747 9.73838 18.8237 9.06107 18.8237C8.38375 18.8237 7.72434 18.747 7.09106 18.6018ZM9.05321 12.6258H6.32497V10.6787C6.32497 9.16327 7.55347 7.93479 9.06892 7.93479H11.7972V9.88186C11.7972 11.3973 10.5687 12.6258 9.05321 12.6258ZM14.079 17.2495C13.5787 17.5985 12.9402 17.2085 12.9402 16.5985V16.5177C12.9402 15.0023 14.1688 13.7738 15.6842 13.7738H15.7155C16.3187 13.7738 16.71 14.4 16.3758 14.9021C15.764 15.8212 14.9837 16.6183 14.079 17.2495Z" fill="black"></path><path d="M36.5797 4.84656C35.1544 4.84656 34.2029 5.2886 33.5999 6.04564C33.548 6.11073 33.4461 6.10953 33.3959 6.04318C32.7979 5.2528 31.8967 4.84656 30.7104 4.84656C29.2856 4.84656 28.3754 5.34771 27.8863 6.05789C27.8863 5.52724 27.4271 5.03418 26.8922 5.03418H24.671L24.6709 15.503H27.8862L27.8863 9.65051C27.8863 8.41816 28.4562 7.6871 29.5195 7.6871C30.5403 7.6871 31.0507 8.3555 31.0507 9.39986V15.5407H34.2405V9.65051C34.2405 8.41816 34.836 7.6871 35.8992 7.6871C36.92 7.6871 37.4304 8.3555 37.4304 9.39986V15.5407H40.5586V9.12833C40.5586 6.51741 39.0253 4.84656 36.5797 4.84656Z" fill="black"></path><path d="M53.7983 15.5407L57.0136 15.5407C57.0136 10.4581 57.0136 5.42641 57.0136 0.343824L53.7983 0.343847C53.7983 5.42644 53.7983 10.4581 53.7983 15.5407Z" fill="black"></path><path d="M59.4724 15.5407H62.6878C62.6878 12.0595 62.6878 8.51535 62.6878 5.03413H59.4724C59.4724 8.51535 59.4724 12.0595 59.4724 15.5407Z" fill="black"></path><path d="M59.4725 1.60229C59.4725 0.907217 60.0405 0.34375 60.7412 0.34375H61.4191C62.1198 0.34375 62.6878 0.907216 62.6878 1.60229V2.27471C62.6878 2.96978 62.1198 3.53324 61.4191 3.53324H60.7412C60.0405 3.53324 59.4725 2.96978 59.4725 2.27471V1.60229Z" fill="black"></path><path d="M50.6557 5.03418C49.8124 5.03418 49.0673 5.58195 48.8174 6.38561L47.2249 11.5075L45.3107 6.29404C45.0329 5.53733 44.3111 5.03418 43.5034 5.03418H41.3152L45.5028 15.1413C45.5499 15.253 45.5539 15.3791 45.5082 15.4913C45.037 16.6481 44.3281 17.0709 42.8997 17.0709V20.0325C45.8973 20.1806 47.803 18.8479 49.0021 15.4843L52.6635 5.03418H50.6557Z" fill="black"></path></g></svg>