<svg xmlns="http://www.w3.org/2000/svg" width="107" height="34" viewBox="0 0 107 34" fill="none"><path fill-rule="evenodd" clip-rule="evenodd" d="M18.2764 2.19502C19.0627 2.37526 19.5788 3.10228 19.5788 3.90894V11.2087H14.9408C12.3645 11.2087 10.2761 9.12028 10.2761 6.54408V3.90894C10.2761 3.10228 10.7921 2.37526 11.5784 2.19502C12.655 1.94824 13.776 1.81787 14.9274 1.81787C16.0789 1.81787 17.1998 1.94824 18.2764 2.19502ZM8.33257 5.60061C8.33257 4.56362 7.24722 3.9007 6.39673 4.49401C4.58134 5.76046 3.06063 7.4201 1.95806 9.34948C1.46695 10.2089 2.13692 11.2087 3.12675 11.2087H3.66786C6.24411 11.2087 8.33257 9.12032 8.33257 6.54412V5.60061ZM27.8965 9.34948C28.3876 10.2089 27.7177 11.2087 26.7278 11.2087H21.522V5.60061C21.522 4.56362 22.6074 3.90069 23.4579 4.49401C25.2732 5.76046 26.794 7.4201 27.8965 9.34948ZM2.62589 13.1604C1.33813 13.1604 0.188443 14.0383 0.0670788 15.3203C0.0226977 15.7892 0 16.2643 0 16.7447C0 17.5539 0.0643973 18.3481 0.188347 19.1225C0.382619 20.3361 1.49499 21.1351 2.72407 21.1351H8.3323V17.825C8.3323 15.2488 6.24384 13.1604 3.66758 13.1604H2.62589ZM6.3963 28.9954C7.24679 29.5887 8.33212 28.9258 8.33212 27.8888V23.0867H3.61427C2.58876 23.0867 1.92354 24.1512 2.49176 25.0049C3.5317 26.5672 4.85824 27.9224 6.3963 28.9954ZM29.6652 19.1225C29.471 20.3361 28.3586 21.1351 27.1295 21.1351H26.186C23.6098 21.1351 21.5213 19.0467 21.5213 16.4705V13.1604H27.2277C28.5155 13.1604 29.6652 14.0384 29.7865 15.3204C29.8309 15.7892 29.8536 16.2643 29.8536 16.7447C29.8536 17.554 29.7892 18.3482 29.6652 19.1225ZM11.5783 31.2944C10.7921 31.1141 10.276 30.3871 10.276 29.5805V23.0867H14.914C17.4903 23.0867 19.5787 25.1752 19.5787 27.7514V29.5805C19.5787 30.3871 19.0626 31.1141 18.2764 31.2944C17.1998 31.5412 16.0788 31.6715 14.9274 31.6715C13.7759 31.6715 12.6549 31.5412 11.5783 31.2944ZM14.914 21.1351H10.276V17.8251C10.276 15.2489 12.3644 13.1604 14.9407 13.1604H19.5787V16.4704C19.5787 19.0467 17.4903 21.1351 14.914 21.1351ZM23.4578 28.9954C22.6073 29.5887 21.5219 28.9258 21.5219 27.8888V27.7514C21.5219 25.1752 23.6104 23.0867 26.1867 23.0867H26.2398C27.2653 23.0867 27.9305 24.1512 27.3623 25.0049C26.3224 26.5673 24.9958 27.9225 23.4578 28.9954Z" fill="black"></path><path d="M61.7089 7.91016C59.2859 7.91016 57.6682 8.66161 56.6431 9.94859C56.555 10.0592 56.3816 10.0572 56.2963 9.9444C55.2797 8.60076 53.7478 7.91016 51.731 7.91016C49.3089 7.91016 47.7615 8.76211 46.93 9.9694C46.93 9.06731 46.1495 8.2291 45.2401 8.2291H41.464L41.4639 26.0261H46.9299L46.93 16.0769C46.93 13.9819 47.899 12.7391 49.7065 12.7391C51.4418 12.7391 52.3095 13.8753 52.3095 15.6508V26.0903H57.7322V16.0769C57.7322 13.9819 58.7445 12.7391 60.552 12.7391C62.2873 12.7391 63.155 13.8753 63.155 15.6508V26.0903H68.4729V15.1892C68.4729 10.7506 65.8663 7.91016 61.7089 7.91016Z" fill="black"></path><path d="M90.9804 26.0902L96.4465 26.0901C96.4465 17.4497 96.4465 8.8959 96.4465 0.255497L90.9804 0.255536C90.9804 8.89594 90.9804 17.4498 90.9804 26.0902Z" fill="black"></path><path d="M100.626 26.0902H106.093C106.093 20.1721 106.093 14.1471 106.093 8.22901H100.626C100.626 14.1471 100.626 20.1721 100.626 26.0902Z" fill="black"></path><path d="M100.627 2.39489C100.627 1.21327 101.592 0.255371 102.783 0.255371H103.936C105.127 0.255371 106.093 1.21326 106.093 2.39488V3.53799C106.093 4.71962 105.127 5.67751 103.936 5.67751H102.783C101.592 5.67751 100.627 4.71962 100.627 3.538V2.39489Z" fill="black"></path><path d="M85.638 8.2291C84.2044 8.2291 82.9377 9.16031 82.5129 10.5265L79.8056 19.2338L76.5515 10.3709C76.0792 9.08445 74.8522 8.2291 73.4792 8.2291H69.7591L76.8781 25.4113C76.9582 25.6011 76.965 25.8155 76.8872 26.0063C76.0862 27.9728 74.8811 28.6915 72.4527 28.6915V33.7263C77.5488 33.978 80.7884 31.7124 82.8268 25.9942L89.0513 8.2291H85.638Z" fill="black"></path></svg>