<svg xmlns="http://www.w3.org/2000/svg" width="506" height="79" viewBox="0 0 506 79" fill="none"><mask id="mask0_345_3424" style="mask-type:alpha" maskUnits="userSpaceOnUse" x="0" y="0" width="506" height="79"><path d="M0.078125 9.51123C0.078125 4.54067 4.10756 0.51123 9.07813 0.51123H497C501.971 0.51123 506 4.54067 506 9.51123V78.626H0.078125V9.51123Z" fill="#D9D9D9"></path></mask><g mask="url(#mask0_345_3424)"><rect x="-393.793" y="51.0869" width="1" height="1280" transform="rotate(-90 -393.793 51.0869)" fill="#FBFBFB"></rect><rect x="-393.793" y="37.0869" width="1" height="1280" transform="rotate(-90 -393.793 37.0869)" fill="#FBFBFB"></rect><rect x="-393.793" y="23.0869" width="1" height="1280" transform="rotate(-90 -393.793 23.0869)" fill="#FBFBFB"></rect><rect x="-393.793" y="79.0869" width="1" height="1280" transform="rotate(-90 -393.793 79.0869)" fill="#FBFBFB"></rect><rect x="-393.793" y="9.08691" width="1" height="1280" transform="rotate(-90 -393.793 9.08691)" fill="#FBFBFB"></rect><rect x="-393.793" y="65.0869" width="1" height="1280" transform="rotate(-90 -393.793 65.0869)" fill="#FBFBFB"></rect><rect x="73.207" y="1.08691" width="1" height="1047" fill="#FBFBFB"></rect><rect x="297.207" y="1.08691" width="1" height="1047" fill="#FBFBFB"></rect><rect x="185.207" y="1.08691" width="1" height="1047" fill="#F5F6F8"></rect><rect x="409.207" y="1.08691" width="1" height="1047" fill="#FBFBFB"></rect><rect x="129.207" y="1.08691" width="1" height="1047" fill="#FBFBFB"></rect><rect x="353.207" y="1.08691" width="1" height="1047" fill="#FBFBFB"></rect><rect x="241.207" y="1.08691" width="1" height="1047" fill="#FBFBFB"></rect><rect x="17.207" y="1.08691" width="1" height="1047" fill="#FBFBFB"></rect><rect x="465.207" y="1.08691" width="1" height="1047" fill="#FBFBFB"></rect><rect x="311.207" y="1.08691" width="1" height="1047" fill="#FBFBFB"></rect><rect x="199.207" y="1.08691" width="1" height="1047" fill="#FBFBFB"></rect><rect x="423.207" y="1.08691" width="1" height="1047" fill="#FBFBFB"></rect><rect x="143.207" y="1.08691" width="1" height="1047" fill="#FBFBFB"></rect><rect x="367.207" y="1.08691" width="1" height="1047" fill="#FBFBFB"></rect><rect x="255.207" y="1.08691" width="1" height="1047" fill="#FBFBFB"></rect><rect x="31.207" y="1.08691" width="1" height="1047" fill="#FBFBFB"></rect><rect x="101.207" y="1.08691" width="1" height="1047" fill="#FBFBFB"></rect><rect x="325.207" y="1.08691" width="1" height="1047" fill="#FBFBFB"></rect><rect x="213.207" y="1.08691" width="1" height="1047" fill="#FBFBFB"></rect><rect x="437.207" y="1.08691" width="1" height="1047" fill="#FBFBFB"></rect><rect x="157.207" y="1.08691" width="1" height="1047" fill="#FBFBFB"></rect><rect x="269.207" y="1.08691" width="1" height="1047" fill="#FBFBFB"></rect><rect x="45.207" y="1.08691" width="1" height="1047" fill="#FBFBFB"></rect><rect x="493.207" y="1.08691" width="1" height="1047" fill="#FBFBFB"></rect><rect x="115.207" y="1.08691" width="1" height="1047" fill="#FBFBFB"></rect><rect x="339.207" y="1.08691" width="1" height="1047" fill="#FBFBFB"></rect><rect x="227.207" y="1.08691" width="1" height="1047" fill="#FBFBFB"></rect><rect x="3.20703" y="1.08691" width="1" height="1047" fill="#FBFBFB"></rect><rect x="451.207" y="1.08691" width="1" height="1047" fill="#FBFBFB"></rect><rect x="171.207" y="1.08691" width="1" height="1047" fill="#FBFBFB"></rect><rect x="395.207" y="1.08691" width="1" height="1047" fill="#FBFBFB"></rect><rect x="59.207" y="1.08691" width="1" height="1047" fill="#FBFBFB"></rect><rect x="87.207" y="1.08691" width="1" height="1047" fill="#F5F6F8"></rect><rect x="479.207" y="1.08691" width="1" height="1047" fill="#F5F6F8"></rect><rect x="381.207" y="1.08691" width="1" height="1047" fill="#F5F6F8"></rect><rect x="283.207" y="1.08691" width="1" height="1047" fill="#F5F6F8"></rect></g></svg>