<svg xmlns="http://www.w3.org/2000/svg" width="30" height="31" viewBox="0 0 30 31" fill="none"><path fill-rule="evenodd" clip-rule="evenodd" d="M18.2764 1.19502C19.0627 1.37526 19.5788 2.10228 19.5788 2.90894V10.2087H14.9408C12.3645 10.2087 10.2761 8.12028 10.2761 5.54408V2.90894C10.2761 2.10228 10.7921 1.37526 11.5784 1.19502C12.655 0.948241 13.776 0.817871 14.9274 0.817871C16.0789 0.817871 17.1998 0.948241 18.2764 1.19502ZM8.33257 4.60061C8.33257 3.56362 7.24722 2.9007 6.39673 3.49401C4.58134 4.76046 3.06063 6.4201 1.95806 8.34948C1.46695 9.20887 2.13692 10.2087 3.12675 10.2087H3.66786C6.24411 10.2087 8.33257 8.12032 8.33257 5.54412V4.60061ZM27.8965 8.34948C28.3876 9.20887 27.7177 10.2087 26.7278 10.2087H21.522V4.60061C21.522 3.56362 22.6074 2.90069 23.4579 3.49401C25.2732 4.76046 26.794 6.4201 27.8965 8.34948ZM2.62589 12.1604C1.33813 12.1604 0.188443 13.0383 0.0670788 14.3203C0.0226977 14.7892 0 15.2643 0 15.7447C0 16.5539 0.0643973 17.3481 0.188347 18.1225C0.382619 19.3361 1.49499 20.1351 2.72407 20.1351H8.3323V16.825C8.3323 14.2488 6.24384 12.1604 3.66758 12.1604H2.62589ZM6.3963 27.9954C7.24679 28.5887 8.33212 27.9258 8.33212 26.8888V22.0867H3.61427C2.58876 22.0867 1.92354 23.1512 2.49176 24.0049C3.5317 25.5672 4.85824 26.9224 6.3963 27.9954ZM29.6652 18.1225C29.471 19.3361 28.3586 20.1351 27.1295 20.1351H26.186C23.6098 20.1351 21.5213 18.0467 21.5213 15.4705V12.1604H27.2277C28.5155 12.1604 29.6652 13.0384 29.7865 14.3204C29.8309 14.7892 29.8536 15.2643 29.8536 15.7447C29.8536 16.554 29.7892 17.3482 29.6652 18.1225ZM11.5783 30.2944C10.7921 30.1141 10.276 29.3871 10.276 28.5805V22.0867H14.914C17.4903 22.0867 19.5787 24.1752 19.5787 26.7514V28.5805C19.5787 29.3871 19.0626 30.1141 18.2764 30.2944C17.1998 30.5412 16.0788 30.6715 14.9274 30.6715C13.7759 30.6715 12.6549 30.5412 11.5783 30.2944ZM14.914 20.1351H10.276V16.8251C10.276 14.2489 12.3644 12.1604 14.9407 12.1604H19.5787V15.4704C19.5787 18.0467 17.4903 20.1351 14.914 20.1351ZM23.4578 27.9954C22.6073 28.5887 21.5219 27.9258 21.5219 26.8888V26.7514C21.5219 24.1752 23.6104 22.0867 26.1867 22.0867H26.2398C27.2653 22.0867 27.9305 23.1512 27.3623 24.0049C26.3224 25.5673 24.9958 26.9225 23.4578 27.9954Z" fill="black"></path></svg>